# xmcd
#
# Track frame offsets:
#	150
#	26115
#	49854
#	74584
#	97091
#	120869
#	139071
#	155451
#	170123
#	210258
#	224467
#	261624
#	285453
#	299731
#
# Disc length: 4302 seconds
#
# Revision: 1
# Processed by: cddbd v1.5.2PL0 Copyright (c) Steve Scherf et al.
# Submitted via: audiograbber 1.83.01
#
DISCID=e510cc0e
DTITLE=Grateful Dead - 73-06-26 Seattle Centre Arena, Seattle WA
DYEAR=1900
DGENRE=
TTITLE0=Casey Jones
TTITLE1=Greatest Story Ever Told
TTITLE2=Brown Eyed Women
TTITLE3=Jack Straw
TTITLE4=Box Of Rain
TTITLE5=Deal
TTITLE6=Mexicali Blues
TTITLE7=You Ain't Women Enough
TTITLE8=Row Jimmy
TTITLE9=The Race Is On
TTITLE10=China Cat Sunflower
TTITLE11=I Know You Rider
TTITLE12=BIODTL
TTITLE13=Loser
EXTD=
EXTT0=
EXTT1=
EXTT2=
EXTT3=
EXTT4=
EXTT5=
EXTT6=
EXTT7=
EXTT8=
EXTT9=
EXTT10=
EXTT11=
EXTT12=
EXTT13=
PLAYORDER=
